<mxfile host="app.diagrams.net" modified="2022-07-19T14:16:23.124Z" agent="5.0 (Windows NT 10.0; Win64; x64) AppleWebKit/537.36 (KHTML, like Gecko) Chrome/103.0.0.0 Safari/537.36" etag="8lnOJp5xlmysU5yNp3Mc" version="20.1.1" type="github">
  <diagram id="NTcUYjZsJp56rcHBwcU8" name="Page-1">
    <mxGraphModel dx="1673" dy="934" grid="1" gridSize="10" guides="1" tooltips="1" connect="1" arrows="1" fold="1" page="1" pageScale="1" pageWidth="827" pageHeight="1169" math="0" shadow="0">
      <root>
        <mxCell id="0" />
        <mxCell id="1" parent="0" />
        <mxCell id="ihADTE-LmOVIHgm_yPyX-11" value="" style="rounded=0;whiteSpace=wrap;html=1;fillColor=#f5f5f5;strokeColor=#666666;fontColor=#333333;" vertex="1" parent="1">
          <mxGeometry x="300" y="70" width="590" height="940" as="geometry" />
        </mxCell>
        <mxCell id="ihADTE-LmOVIHgm_yPyX-22" value="" style="rounded=0;whiteSpace=wrap;html=1;fillColor=#dae8fc;strokeColor=#6c8ebf;" vertex="1" parent="1">
          <mxGeometry x="380" y="540" width="430" height="330" as="geometry" />
        </mxCell>
        <mxCell id="ihADTE-LmOVIHgm_yPyX-1" value="Download &quot;Informe de Oportunidades&quot; from Mailbox" style="rounded=0;whiteSpace=wrap;html=1;" vertex="1" parent="1">
          <mxGeometry x="100" y="130" width="120" height="60" as="geometry" />
        </mxCell>
        <mxCell id="ihADTE-LmOVIHgm_yPyX-2" value="Informe de Oportunidades" style="rounded=0;whiteSpace=wrap;html=1;" vertex="1" parent="1">
          <mxGeometry x="430" y="140" width="120" height="60" as="geometry" />
        </mxCell>
        <mxCell id="ihADTE-LmOVIHgm_yPyX-4" value="Unzipped Folders B2B/B2C" style="rounded=0;whiteSpace=wrap;html=1;" vertex="1" parent="1">
          <mxGeometry x="600" y="140" width="120" height="60" as="geometry" />
        </mxCell>
        <mxCell id="ihADTE-LmOVIHgm_yPyX-6" value="" style="endArrow=classic;html=1;rounded=0;exitX=0.5;exitY=1;exitDx=0;exitDy=0;" edge="1" parent="1" source="ihADTE-LmOVIHgm_yPyX-2">
          <mxGeometry width="50" height="50" relative="1" as="geometry">
            <mxPoint x="500" y="190" as="sourcePoint" />
            <mxPoint x="570" y="260" as="targetPoint" />
          </mxGeometry>
        </mxCell>
        <mxCell id="ihADTE-LmOVIHgm_yPyX-7" value="" style="endArrow=classic;html=1;rounded=0;exitX=0.547;exitY=1.002;exitDx=0;exitDy=0;exitPerimeter=0;" edge="1" parent="1" source="ihADTE-LmOVIHgm_yPyX-4">
          <mxGeometry width="50" height="50" relative="1" as="geometry">
            <mxPoint x="660" y="190" as="sourcePoint" />
            <mxPoint x="570" y="260" as="targetPoint" />
          </mxGeometry>
        </mxCell>
        <mxCell id="ihADTE-LmOVIHgm_yPyX-13" value="" style="edgeStyle=orthogonalEdgeStyle;rounded=0;orthogonalLoop=1;jettySize=auto;html=1;" edge="1" parent="1" source="ihADTE-LmOVIHgm_yPyX-8" target="ihADTE-LmOVIHgm_yPyX-12">
          <mxGeometry relative="1" as="geometry" />
        </mxCell>
        <mxCell id="ihADTE-LmOVIHgm_yPyX-8" value="Matches:&lt;br&gt;-DNI*&lt;br&gt;-DNI" style="rounded=0;whiteSpace=wrap;html=1;" vertex="1" parent="1">
          <mxGeometry x="510" y="300" width="120" height="60" as="geometry" />
        </mxCell>
        <mxCell id="ihADTE-LmOVIHgm_yPyX-10" value="" style="endArrow=classic;html=1;rounded=0;entryX=0.5;entryY=0;entryDx=0;entryDy=0;" edge="1" parent="1" target="ihADTE-LmOVIHgm_yPyX-8">
          <mxGeometry width="50" height="50" relative="1" as="geometry">
            <mxPoint x="570" y="260" as="sourcePoint" />
            <mxPoint x="700" y="240" as="targetPoint" />
          </mxGeometry>
        </mxCell>
        <mxCell id="ihADTE-LmOVIHgm_yPyX-15" value="NO" style="edgeStyle=orthogonalEdgeStyle;rounded=0;orthogonalLoop=1;jettySize=auto;html=1;" edge="1" parent="1" source="ihADTE-LmOVIHgm_yPyX-12" target="ihADTE-LmOVIHgm_yPyX-14">
          <mxGeometry relative="1" as="geometry" />
        </mxCell>
        <mxCell id="ihADTE-LmOVIHgm_yPyX-19" value="YES" style="edgeStyle=orthogonalEdgeStyle;rounded=0;orthogonalLoop=1;jettySize=auto;html=1;" edge="1" parent="1" source="ihADTE-LmOVIHgm_yPyX-12" target="ihADTE-LmOVIHgm_yPyX-18">
          <mxGeometry relative="1" as="geometry" />
        </mxCell>
        <mxCell id="ihADTE-LmOVIHgm_yPyX-12" value="¿Hay matches?" style="rhombus;whiteSpace=wrap;html=1;" vertex="1" parent="1">
          <mxGeometry x="530" y="400" width="80" height="80" as="geometry" />
        </mxCell>
        <mxCell id="ihADTE-LmOVIHgm_yPyX-14" value="No folders to be copied" style="whiteSpace=wrap;html=1;" vertex="1" parent="1">
          <mxGeometry x="670" y="410" width="120" height="60" as="geometry" />
        </mxCell>
        <mxCell id="ihADTE-LmOVIHgm_yPyX-17" value="&lt;font style=&quot;font-size: 15px;&quot;&gt;&lt;b&gt;Obtain matches by dni/cif&lt;/b&gt;&lt;/font&gt;" style="rounded=0;whiteSpace=wrap;html=1;" vertex="1" parent="1">
          <mxGeometry x="300" y="70" width="210" height="40" as="geometry" />
        </mxCell>
        <mxCell id="ihADTE-LmOVIHgm_yPyX-21" value="" style="edgeStyle=orthogonalEdgeStyle;rounded=0;orthogonalLoop=1;jettySize=auto;html=1;" edge="1" parent="1" source="ihADTE-LmOVIHgm_yPyX-18" target="ihADTE-LmOVIHgm_yPyX-20">
          <mxGeometry relative="1" as="geometry" />
        </mxCell>
        <mxCell id="ihADTE-LmOVIHgm_yPyX-18" value="Check exists in KYC y Riesgos" style="whiteSpace=wrap;html=1;" vertex="1" parent="1">
          <mxGeometry x="510" y="555" width="120" height="60" as="geometry" />
        </mxCell>
        <mxCell id="ihADTE-LmOVIHgm_yPyX-24" value="YES" style="edgeStyle=orthogonalEdgeStyle;rounded=0;orthogonalLoop=1;jettySize=auto;html=1;" edge="1" parent="1" source="ihADTE-LmOVIHgm_yPyX-20" target="ihADTE-LmOVIHgm_yPyX-23">
          <mxGeometry relative="1" as="geometry" />
        </mxCell>
        <mxCell id="ihADTE-LmOVIHgm_yPyX-26" value="NO" style="edgeStyle=orthogonalEdgeStyle;rounded=0;orthogonalLoop=1;jettySize=auto;html=1;" edge="1" parent="1" source="ihADTE-LmOVIHgm_yPyX-20" target="ihADTE-LmOVIHgm_yPyX-25">
          <mxGeometry relative="1" as="geometry" />
        </mxCell>
        <mxCell id="ihADTE-LmOVIHgm_yPyX-20" value="Ya existía?" style="rhombus;whiteSpace=wrap;html=1;" vertex="1" parent="1">
          <mxGeometry x="530" y="640" width="80" height="80" as="geometry" />
        </mxCell>
        <mxCell id="ihADTE-LmOVIHgm_yPyX-23" value="Copy certain files" style="whiteSpace=wrap;html=1;" vertex="1" parent="1">
          <mxGeometry x="510" y="760" width="120" height="60" as="geometry" />
        </mxCell>
        <mxCell id="ihADTE-LmOVIHgm_yPyX-25" value="Copy Folder" style="whiteSpace=wrap;html=1;" vertex="1" parent="1">
          <mxGeometry x="670" y="650" width="120" height="60" as="geometry" />
        </mxCell>
        <mxCell id="ihADTE-LmOVIHgm_yPyX-27" value="Text" style="text;html=1;strokeColor=none;fillColor=none;align=center;verticalAlign=middle;whiteSpace=wrap;rounded=0;fontSize=15;" vertex="1" parent="1">
          <mxGeometry x="690" y="560" width="60" height="30" as="geometry" />
        </mxCell>
      </root>
    </mxGraphModel>
  </diagram>
</mxfile>
